<svg width="479" height="326" viewBox="0 0 479 326" fill="none" xmlns="http://www.w3.org/2000/svg">
<path d="M315.685 325.443C331.598 320.469 345.876 315.387 363.052 305.743C380.767 295.795 459.462 248.453 469.695 166.518C472.376 144.062 470.151 121.291 463.173 99.7788C460.01 90.5063 453.449 71.8829 436.889 53.4652C416.619 30.9056 393.488 22.1618 379.925 17.2171C359.473 9.86324 337.765 6.63837 316.057 7.72911C303.758 8.13056 282.047 9.03133 257.37 19.8118C241.27 26.8421 231.262 34.8613 216.515 46.8461C193.149 65.8514 190.074 73.7629 149.2 113.007C137.977 123.778 128.752 132.267 114.671 140.629C104.907 146.426 97.0143 149.667 82.4525 155.581C46.6602 170.121 36.4694 173.065 24.7573 181.251C1.97952 197.181 3.45488 214.555 2.4756 218.295C-0.0709193 227.861 -0.660454 237.841 0.742294 247.64C3.72907 267.292 14.315 280.138 20.8859 287.913C29.9053 298.487 40.8349 307.27 53.1038 313.801C61.6211 318.294 70.4431 322.185 79.5049 325.443L315.685 325.443Z" fill="#90BAE7"/>
<path d="M366.207 311.554L365.727 310.7C389.132 297.553 466.295 248.265 476.559 166.044C479.327 142.727 477.017 119.088 469.788 96.748C466.873 88.1981 460.045 68.1763 442.517 48.676C421.052 24.7935 396.545 15.8563 383.38 11.0553C362.136 3.40949 339.586 0.0583669 317.037 1.19636C304.87 1.59219 282.223 2.32898 256.084 13.7407L255.692 12.8438C282.003 1.35603 305.643 0.587237 317.004 0.218151C339.679 -0.926912 362.354 2.44411 383.714 10.1354C396.96 14.9656 421.616 23.9573 443.246 48.022C460.907 67.6709 467.78 87.8252 470.715 96.4319C477.99 118.913 480.314 142.701 477.53 166.165C467.21 248.842 389.713 298.349 366.207 311.554Z" fill="#D5EFC8"/>
</svg>
