<svg width="158" height="158" viewBox="0 0 158 158" fill="none" xmlns="http://www.w3.org/2000/svg">
<path d="M78.779 157.539C122.287 157.539 157.558 122.272 157.558 78.7693C157.558 35.2662 122.287 0 78.779 0C35.2705 0 0 35.2662 0 78.7693C0 122.272 35.2705 157.539 78.779 157.539Z" fill="#E5E5E5"/>
<path d="M95.2678 139.097C105.676 139.097 114.114 130.66 114.114 120.253C114.114 109.846 105.676 101.409 95.2678 101.409C84.8594 101.409 76.4216 109.846 76.4216 120.253C76.4216 130.66 84.8594 139.097 95.2678 139.097Z" fill="#616161"/>
<path d="M90.9192 129.685L90.9017 129.684C90.6663 129.682 90.4337 129.632 90.2182 129.537C90.0028 129.442 89.8089 129.304 89.6484 129.132L83.4032 122.441C83.0894 122.104 82.9223 121.656 82.9385 121.196C82.9548 120.736 83.153 120.301 83.4898 119.987C83.8266 119.672 84.2744 119.505 84.7348 119.521C85.1951 119.536 85.6303 119.734 85.9449 120.07L90.9439 125.426L104.615 111.348C104.774 111.185 104.963 111.054 105.173 110.963C105.383 110.873 105.608 110.825 105.836 110.821C106.065 110.818 106.291 110.86 106.503 110.944C106.716 111.028 106.909 111.153 107.073 111.312C107.237 111.471 107.368 111.661 107.458 111.871C107.548 112.08 107.597 112.306 107.6 112.534C107.603 112.762 107.562 112.989 107.477 113.201C107.393 113.413 107.268 113.607 107.109 113.771L92.1664 129.157C92.0043 129.324 91.8105 129.457 91.5963 129.547C91.382 129.638 91.1518 129.685 90.9192 129.685Z" fill="#F2F2F2"/>
<path d="M122.726 41.55H35.5402V45.8947H122.726V41.55Z" fill="white"/>
<path d="M123.147 52.0953H35.9604V56.4399H123.147V52.0953Z" fill="white"/>
<path d="M123.477 62.1742H36.2899V66.5188H123.477V62.1742Z" fill="white"/>
<path d="M123.477 72.7014H36.2899V77.046H123.477V72.7014Z" fill="white"/>
</svg>
