<svg width="98" height="290" viewBox="0 0 98 290" fill="none" xmlns="http://www.w3.org/2000/svg">
<path d="M40.3886 100.574C64.6854 100.578 73.6737 93.2479 73.7871 93.1519L73.5123 92.829C73.3682 92.9495 58.637 104.921 15.6447 98.0009L15.5772 98.4197C23.7774 99.7949 32.0741 100.515 40.3886 100.574Z" fill="#065082"/>
<path d="M25.8513 261.227L24.4468 275.221L48.7499 287.098L11.4271 287.093L11.4313 261.224L25.8513 261.227Z" fill="#F9977A"/>
<path d="M70.6135 261.234L69.209 275.228L93.5121 287.107L56.1894 287.1L56.1936 261.232L70.6135 261.234Z" fill="#F9977A"/>
<path d="M97.2585 288.379V288.294C97.2586 287.639 97.077 286.998 96.7339 286.44C96.3909 285.883 95.8997 285.432 95.3153 285.137L70.0895 272.42C69.8428 272.296 69.5601 272.262 69.291 272.325C69.0219 272.388 68.7834 272.544 68.6174 272.765L63.6851 279.326C63.5101 279.559 63.255 279.719 62.9691 279.774C62.6832 279.83 62.3868 279.778 62.137 279.628L56.3497 276.155C56.171 276.048 55.9669 275.99 55.7585 275.987C55.55 275.984 55.3446 276.037 55.1632 276.14C54.9817 276.243 54.8308 276.391 54.7257 276.572C54.6207 276.752 54.5653 276.956 54.5653 277.165L54.5634 288.372C54.5634 288.526 54.5938 288.68 54.653 288.823C54.7122 288.966 54.799 289.095 54.9084 289.205C55.0177 289.314 55.1476 289.401 55.2905 289.46C55.4334 289.519 55.5867 289.55 55.7414 289.55L96.0802 289.557C96.2349 289.557 96.3881 289.526 96.5311 289.467C96.674 289.408 96.8039 289.321 96.9133 289.212C97.0228 289.102 97.1096 288.973 97.1688 288.83C97.228 288.687 97.2585 288.534 97.2585 288.379ZM52.4959 288.371V288.286C52.496 287.632 52.3144 286.99 51.9713 286.433C51.6282 285.876 51.137 285.425 50.5527 285.13L25.3269 272.413C25.0801 272.289 24.7974 272.255 24.5283 272.318C24.2592 272.381 24.0208 272.536 23.8547 272.757L18.9224 279.319C18.7474 279.551 18.4923 279.711 18.2065 279.767C17.9206 279.823 17.6241 279.771 17.3744 279.621L11.587 276.147C11.4083 276.04 11.2042 275.982 10.9958 275.98C10.7873 275.977 10.5819 276.03 10.4004 276.132C10.219 276.235 10.068 276.384 9.96298 276.564C9.85795 276.744 9.80259 276.949 9.80255 277.157L9.80069 288.364C9.80066 288.519 9.83109 288.672 9.89027 288.815C9.94945 288.958 10.0362 289.088 10.1456 289.197C10.255 289.307 10.3848 289.394 10.5278 289.453C10.6707 289.512 10.8239 289.543 10.9786 289.543L51.3175 289.549C51.4722 289.549 51.6254 289.519 51.7684 289.46C51.9113 289.4 52.0412 289.314 52.1507 289.204C52.2601 289.095 52.3469 288.965 52.4061 288.822C52.4653 288.679 52.4958 288.526 52.4959 288.371Z" fill="#F2F2F2"/>
<path d="M73.0992 87.9061C73.0992 87.9061 75.3313 124.136 75.3299 132.654L75.3215 182.916C75.3212 184.985 75.2192 187.051 75.0155 189.114L76.0201 264.696C75.9475 265.43 75.6045 266.111 75.0577 266.606C74.5109 267.101 73.7994 267.376 73.0615 267.376C69.7984 269.531 65.8835 270.475 61.9965 270.045C59.4667 269.724 57.0491 268.808 54.9413 267.372C54.1731 267.023 51.9685 265.943 51.9693 264.4C51.9694 264.328 51.972 264.256 51.9772 264.184L49.0991 200.372C49.5266 194.509 46.0907 178.255 44.8877 172.5L58.4716 94.5L73.0992 87.9061Z" fill="#002D69"/>
<path d="M17.2351 267.765C14.4564 267.189 10.831 266.072 9.98034 265.221C9.70396 264.945 9.48482 264.617 9.33547 264.257C9.18613 263.896 9.10954 263.509 9.11011 263.119L9.11875 211.282C9.12046 201.153 10.2616 191.056 12.5206 181.181C12.9254 179.411 13.0869 177.594 13.0007 175.78C12.3675 162.432 10.0034 103.893 16.6609 93.2465L59.2361 90.1105L28.8516 264.581C28.6077 266.009 22.3598 268.827 17.2351 267.765Z" fill="#002D69"/>
<path d="M24.5127 157.084L24.7396 156.726C17.53 152.146 15.8312 138.471 15.8148 138.334L15.3939 138.383C15.4102 138.523 17.1314 152.396 24.5127 157.084Z" fill="#B02336"/>
<path d="M57.4588 98.904L45.2228 170.872L45.6421 170.943L57.8781 98.9753L57.4588 98.904Z" fill="#B02336"/>
<path d="M54.5406 116.75L54.7965 116.41L51.6 114.002L53.9805 99.596L53.5625 99.5254L51.1409 114.186L54.5406 116.75Z" fill="#B02336"/>
<path d="M24.5056 162.786L24.7447 162.437C18.9154 158.445 15.8311 150.588 15.8005 150.509L15.404 150.663C15.4346 150.742 18.5649 158.719 24.5056 162.786ZM62.9706 218.077L63.1976 217.719C55.987 213.138 54.288 199.463 54.2717 199.326L53.8508 199.375C53.8671 199.515 55.5884 213.389 62.9706 218.077ZM62.9635 223.779L63.2026 223.429C57.3703 219.435 54.288 211.58 54.2573 211.501L53.8609 211.655C53.8916 211.734 57.0229 219.712 62.9635 223.779Z" fill="#B02336"/>
<path d="M0.965606 52.4861C0.965606 52.4861 0.0109282 32.8312 7.01025 18.2845C8.88667 14.3883 11.9473 11.1853 15.7545 9.13349C20.1439 6.76511 27.6765 2.62625 35.5042 0.544678C35.4382 6.32626 40.0191 7.47106 45.5046 7.35793C50.6395 7.25203 54.4486 7.37936 54.6802 1.98341C66.8321 4.71342 72.8167 9.55264 74.9045 13.9654C79.0537 22.7351 79.6779 41.1232 79.6779 41.1232L73.2538 42.3962C73.2538 42.3962 74.8653 90.9126 73.592 96.1461C67.3118 97.5765 60.7732 102.426 52.9687 103.118C38.3869 104.412 25.0347 99.8696 14.7864 98.3358C16.1207 92.3746 17.3366 86.0039 18.3506 79.2496C19.708 70.2066 20.6102 61.101 21.0535 51.9674L0.965606 52.4861Z" fill="#007DFE"/>
<path d="M35.5042 0.544678L45.5046 7.35793L40.5039 14.2314L29.6395 2.46826L35.5042 0.544678Z" fill="#002D69"/>
<path d="M45.5046 7.35793L54.6802 1.98341L58.8911 3.08301L49.1932 13.1744L45.5046 7.35793Z" fill="#002D69"/>
<path d="M29.6395 2.46826C31.5464 4.34035 33.4404 6.22417 35.2895 8.14919L38.0751 11.0257C39.0103 11.9787 39.9073 12.9667 40.8253 13.9351L40.1512 13.9747C41.8098 11.6775 43.4267 9.35048 45.1196 7.07848L45.5396 6.51459L49.5496 12.9482L48.8893 12.8818C50.5202 11.2138 52.1948 9.58846 53.8454 7.93946C55.5072 6.30125 57.1888 4.68215 58.8911 3.08301C57.3623 4.8487 55.8121 6.5941 54.2395 8.31831C52.6575 10.0326 51.0995 11.7705 49.4977 13.4663L49.1307 13.8549L45.1026 7.61306L45.8894 7.63825C44.2489 9.94829 42.5325 12.2033 40.8578 14.4887L40.5392 14.9236L40.1834 14.5277C39.2906 13.5362 38.3768 12.5636 37.5013 11.5556L34.8545 8.55062C33.0821 6.55468 31.3541 4.51769 29.6395 2.46826Z" fill="#002D69"/>
<path d="M45.5046 7.35793C47.4615 14.8597 49.0136 22.4628 50.3938 30.0935C51.7608 37.7278 52.8536 45.4069 53.672 53.1307C54.4973 60.8517 54.8994 68.6121 54.8764 76.377C54.9198 84.1468 54.0943 91.8971 52.4155 99.4835L53.2993 93.7424C53.5642 91.8276 53.6368 89.8877 53.8148 87.9652C54.0303 86.0438 54.0156 84.1054 54.0818 82.1742L54.1598 79.2766C54.1866 78.3112 54.1327 77.3438 54.1231 76.3775C54.0884 68.6455 53.4998 60.9222 52.6991 53.2308C51.9723 45.5276 50.86 37.8645 49.6544 30.2183C49.0642 26.3924 48.4016 22.5773 47.6997 18.7694C47.0293 14.9549 46.2853 11.1535 45.5046 7.35793ZM73.2538 42.3962C72.9315 40.9102 72.695 39.4149 72.4713 37.918C72.2388 36.4222 72.0676 34.9202 71.8967 33.4177C71.7443 31.9132 71.5936 30.4086 71.5033 28.8979C71.4051 27.3877 71.3192 25.8759 71.3205 24.3554C71.644 25.8415 71.8803 27.3367 72.1044 28.8336C72.3363 30.3294 72.5078 31.8314 72.6777 33.3339C72.8289 34.8385 72.98 36.343 73.0697 37.8543C73.1683 39.364 73.2538 40.8757 73.2538 42.3962Z" fill="#5E7C24"/>
<path d="M21.0535 51.9674C20.9825 50.4577 21.0176 48.9517 21.0784 47.4471C21.1319 45.9415 21.2637 44.4411 21.4145 42.9422C21.5853 41.4453 21.7852 39.9495 22.0831 38.4681C22.3385 36.9747 22.76 35.5146 23.3396 34.1148C23.1946 34.8586 23.0521 35.589 22.9644 36.3343C22.8543 37.0745 22.7596 37.8168 22.6804 38.5611L22.1953 43.027C22.0258 44.5161 21.8745 46.0073 21.6781 47.4964C21.4924 48.9871 21.306 50.4777 21.0535 51.9674ZM45.7311 23.1028C46.1119 23.0896 46.4726 22.9291 46.7373 22.6551C47.002 22.3811 47.1499 22.015 47.1499 21.6341C47.1499 21.2531 47.002 20.8871 46.7373 20.6131C46.4726 20.3391 46.1119 20.1786 45.7311 20.1654C45.3504 20.1786 44.9896 20.3391 44.7249 20.6131C44.4602 20.8871 44.3123 21.2531 44.3123 21.6341C44.3123 22.015 44.4602 22.3811 44.7249 22.6551C44.9896 22.9291 45.3504 23.0896 45.7311 23.1028ZM47.4938 34.3826C47.8745 34.3694 48.2353 34.2088 48.5 33.9348C48.7646 33.6608 48.9126 33.2948 48.9126 32.9139C48.9126 32.5329 48.7646 32.1669 48.5 31.8929C48.2353 31.6189 47.8745 31.4584 47.4938 31.4451C47.113 31.4584 46.7523 31.6189 46.4876 31.8929C46.2229 32.1669 46.075 32.5329 46.075 32.9139C46.075 33.2948 46.2229 33.6608 46.4876 33.9348C46.7523 34.2088 47.113 34.3694 47.4938 34.3826ZM49.6091 46.3674C49.9898 46.3542 50.3505 46.1936 50.6152 45.9196C50.8799 45.6456 51.0278 45.2796 51.0278 44.8987C51.0278 44.5177 50.8799 44.1517 50.6152 43.8777C50.3505 43.6037 49.9898 43.4431 49.6091 43.4299C49.2283 43.4431 48.8675 43.6037 48.6028 43.8777C48.3382 44.1517 48.1902 44.5177 48.1902 44.8987C48.1902 45.2796 48.3382 45.6456 48.6028 45.9196C48.8675 46.1936 49.2283 46.3542 49.6091 46.3674ZM51.7242 72.8044C52.105 72.7912 52.4657 72.6307 52.7304 72.3567C52.9951 72.0827 53.143 71.7166 53.143 71.3357C53.143 70.9547 52.9951 70.5887 52.7304 70.3147C52.4657 70.0407 52.105 69.8802 51.7242 69.867C51.3435 69.8802 50.9827 70.0407 50.718 70.3147C50.4534 70.5887 50.3054 70.9547 50.3054 71.3357C50.3054 71.7166 50.4534 72.0827 50.718 72.3567C50.9827 72.6307 51.3435 72.7912 51.7242 72.8044ZM51.7242 85.4942C52.105 85.481 52.4657 85.3204 52.7304 85.0464C52.9951 84.7724 53.143 84.4064 53.143 84.0254C53.143 83.6445 52.9951 83.2785 52.7304 83.0045C52.4657 82.7305 52.105 82.5699 51.7242 82.5567C51.3435 82.5699 50.9827 82.7305 50.718 83.0045C50.4534 83.2785 50.3054 83.6445 50.3054 84.0254C50.3054 84.4064 50.4534 84.7724 50.718 85.0464C50.9827 85.3204 51.3435 85.481 51.7242 85.4942ZM50.3141 96.4215C50.6949 96.4083 51.0556 96.2477 51.3203 95.9737C51.5849 95.6998 51.7329 95.3337 51.7329 94.9528C51.7329 94.5718 51.5849 94.2057 51.3203 93.9317C51.0556 93.6577 50.6949 93.4972 50.3141 93.484C49.9333 93.4972 49.5726 93.6577 49.3079 93.9317C49.0432 94.2057 48.8953 94.5718 48.8953 94.9528C48.8953 95.3337 49.0432 95.6998 49.3079 95.9737C49.5726 96.2477 49.9333 96.4083 50.3141 96.4215Z" fill="#292E33"/>
</svg>
