<svg width="118" height="79" viewBox="0 0 118 79" fill="none" xmlns="http://www.w3.org/2000/svg">
<path d="M112.727 0.192261H5.39057C2.69194 0.192261 0.504272 2.37967 0.504272 5.07797V73.9558C0.504272 76.6541 2.69194 78.8415 5.39057 78.8415H112.727C115.426 78.8415 117.614 76.6541 117.614 73.9558V5.07797C117.614 2.37967 115.426 0.192261 112.727 0.192261Z" fill="#002D69"/>
<path d="M73.1326 5.7854H5.78235V10.6806H73.1326V5.7854Z" fill="#F2F2F2"/>
<path d="M0.504333 33.6122H117.614V14.7663H0.504333V33.6122Z" fill="#F2F2F2"/>
<path d="M109.07 53.2771H81.1742V58.1723H109.07V53.2771Z" fill="#F2F2F2"/>
<path d="M95.1215 65.8931H67.8557V70.7882H95.1215V65.8931Z" fill="#F2F2F2"/>
<path d="M61.8238 65.8931H46.2426V70.7882H61.8238V65.8931Z" fill="#F2F2F2"/>
<path d="M76.1479 53.2771H60.5667V58.1723H76.1479V53.2771Z" fill="#F2F2F2"/>
<path d="M14.0749 72.8535C23.5077 72.8535 23.5233 58.1957 14.0749 58.1957C4.64215 58.1957 4.62658 72.8535 14.0749 72.8535Z" fill="#90BAE7"/>
</svg>
