<svg width="53" height="53" viewBox="0 0 53 53" fill="none" xmlns="http://www.w3.org/2000/svg">
<path d="M26.3877 52.769C40.9613 52.769 52.7755 40.9563 52.7755 26.3845C52.7755 11.8127 40.9613 0 26.3877 0C11.8142 0 0 11.8127 0 26.3845C0 40.9563 11.8142 52.769 26.3877 52.769Z" fill="#F2F2F2"/>
<path d="M39.2989 7.53906C39.2989 7.25985 39.188 6.99209 38.9906 6.79466C38.7931 6.59724 38.5253 6.48633 38.2461 6.48633H14.5288C14.2496 6.48633 13.9818 6.59724 13.7843 6.79466C13.5869 6.99209 13.476 7.25985 13.476 7.53906V8.17068C13.476 8.44988 13.5869 8.71765 13.7843 8.91507C13.9818 9.1125 14.2496 9.22341 14.5288 9.22341H23.2347C24.8857 9.22571 26.4935 9.75099 27.8273 10.7238C29.1611 11.6967 30.1523 13.067 30.6587 14.6382C30.7041 14.7949 30.7123 14.9601 30.6825 15.1206C30.6527 15.281 30.5857 15.4322 30.487 15.5621C30.3882 15.692 30.2604 15.797 30.1138 15.8687C29.9672 15.9404 29.8058 15.9767 29.6427 15.9749H14.5288C14.2496 15.9749 13.9818 16.0858 13.7843 16.2832C13.5869 16.4806 13.476 16.7484 13.476 17.0276V17.6592C13.476 17.9384 13.5869 18.2062 13.7843 18.4036C13.9818 18.6011 14.2496 18.712 14.5288 18.712H29.394C29.5708 18.7126 29.7447 18.7575 29.8997 18.8425C30.0548 18.9275 30.1861 19.0499 30.2817 19.1987C30.3774 19.3474 30.4342 19.5177 30.4472 19.694C30.4602 19.8704 30.4288 20.0472 30.356 20.2083C29.7405 21.5824 28.7409 22.7493 27.4774 23.5684C26.2139 24.3874 24.7405 24.8238 23.2347 24.8248H15.8975C15.6183 24.8248 15.3505 24.9357 15.153 25.1331C14.9556 25.3305 14.8447 25.5983 14.8447 25.8775V27.1968C14.8447 27.4277 14.9206 27.6522 15.0607 27.8357L28.5089 45.4469C28.6783 45.6688 28.929 45.8143 29.2057 45.8514C29.4824 45.8885 29.7625 45.8143 29.9845 45.6449L30.4866 45.2618C30.5965 45.1779 30.6889 45.0732 30.7583 44.9536C30.8278 44.834 30.873 44.7019 30.8914 44.5649C30.9098 44.4278 30.901 44.2885 30.8655 44.1548C30.8301 44.0212 30.7686 43.8958 30.6847 43.7859L19.5859 29.2534C19.4667 29.0974 19.3936 28.9113 19.3747 28.7159C19.3558 28.5205 19.3919 28.3238 19.4789 28.1478C19.566 27.9719 19.7004 27.8238 19.8672 27.7202C20.034 27.6167 20.2264 27.5618 20.4227 27.5618H24.8623C24.9577 27.5619 25.0528 27.5503 25.1454 27.5273C27.1485 27.1018 28.9919 26.1223 30.4655 24.7004C31.939 23.2786 32.9836 21.4715 33.4802 19.485C33.5384 19.2612 33.6701 19.0633 33.8541 18.9232C34.0381 18.783 34.2638 18.7086 34.4951 18.7119H38.2461C38.5253 18.7119 38.7931 18.601 38.9906 18.4036C39.188 18.2061 39.2989 17.9384 39.2989 17.6592V17.0275C39.2989 16.7483 39.188 16.4806 38.9906 16.2831C38.7931 16.0857 38.5253 15.9748 38.2461 15.9748H34.6408C34.3993 15.978 34.1643 15.8965 33.9765 15.7446C33.7887 15.5928 33.66 15.38 33.6127 15.1432C33.2351 13.029 32.2144 11.0828 30.6898 9.57007C30.5673 9.44752 30.4348 9.339 30.3073 9.22328H38.2461C38.5253 9.22328 38.7931 9.11237 38.9906 8.91494C39.188 8.71752 39.2989 8.44975 39.2989 8.17055V7.53906Z" fill="#90BAE7"/>
</svg>
