<svg width="20" height="3" viewBox="0 0 20 3" fill="none" xmlns="http://www.w3.org/2000/svg">
<path d="M1.33981 2.82796C1.21347 2.82797 1.09067 2.78622 0.990519 2.70922C0.890367 2.63221 0.81847 2.52426 0.78604 2.40217C0.753609 2.28007 0.762458 2.15069 0.811198 2.03414C0.859938 1.91759 0.945853 1.82042 1.05555 1.75776C2.0847 1.24442 3.2187 0.976277 4.3688 0.974315C5.51889 0.972354 6.65385 1.23662 7.68474 1.74645C7.81884 1.81647 7.91976 1.93671 7.96547 2.0809C8.01118 2.2251 7.99796 2.38153 7.92868 2.51601C7.8594 2.65048 7.73973 2.75207 7.59577 2.79858C7.45182 2.84509 7.29528 2.83273 7.1604 2.76422C7.1311 2.75085 4.19514 1.28075 1.62314 2.75293C1.53673 2.8019 1.43914 2.82774 1.33981 2.82796ZM12.6812 2.82796C12.5547 2.82821 12.4317 2.78661 12.3314 2.70965C12.231 2.6327 12.159 2.52472 12.1265 2.40254C12.094 2.28035 12.1028 2.15084 12.1516 2.0342C12.2005 1.91757 12.2865 1.82037 12.3963 1.75776C13.4253 1.24423 14.5593 0.975971 15.7094 0.97401C16.8594 0.972048 17.9943 1.23643 19.025 1.74645C19.0919 1.78081 19.1513 1.828 19.1999 1.88531C19.2485 1.94263 19.2853 2.00896 19.3083 2.08052C19.3312 2.15207 19.3399 2.22743 19.3337 2.30232C19.3275 2.37721 19.3067 2.45016 19.2723 2.51699C19.2379 2.58382 19.1908 2.64321 19.1334 2.6918C19.0761 2.7404 19.0098 2.77723 18.9382 2.80018C18.8666 2.82314 18.7913 2.83178 18.7164 2.82561C18.6415 2.81944 18.5685 2.79858 18.5017 2.76422C17.6386 2.34692 16.6927 2.12923 15.7341 2.12728C14.7754 2.12532 13.8286 2.33915 12.9639 2.75293C12.8777 2.80182 12.7803 2.82766 12.6812 2.82796Z" fill="#1E1D22"/>
</svg>
