<svg width="16" height="5" viewBox="0 0 16 5" fill="none" xmlns="http://www.w3.org/2000/svg">
<path d="M14.2886 4.35364C14.7339 4.33805 15.1558 4.15021 15.4653 3.82971C15.7748 3.50922 15.9478 3.0811 15.9478 2.63558C15.9478 2.19007 15.7748 1.76195 15.4653 1.44145C15.1558 1.12096 14.7339 0.933121 14.2886 0.917531C13.8433 0.933121 13.4214 1.12096 13.1119 1.44145C12.8024 1.76195 12.6295 2.19007 12.6295 2.63558C12.6295 3.0811 12.8024 3.50922 13.1119 3.82971C13.4214 4.15021 13.8433 4.33805 14.2886 4.35364ZM2.53559 4.25054C2.9809 4.23495 3.40277 4.04713 3.71228 3.72664C4.02179 3.40614 4.19476 2.97802 4.19476 2.53251C4.19476 2.08699 4.02179 1.65887 3.71228 1.33837C3.40277 1.01788 2.9809 0.830042 2.53559 0.814453C2.09029 0.830042 1.66845 1.01788 1.35894 1.33837C1.04943 1.65887 0.876465 2.08699 0.876465 2.53251C0.876465 2.97802 1.04943 3.40614 1.35894 3.72664C1.66845 4.04713 2.09029 4.23495 2.53559 4.25054Z" fill="#1E1D22"/>
</svg>
