<svg width="90" height="45" viewBox="0 0 90 45" fill="none" xmlns="http://www.w3.org/2000/svg">
<path d="M72.1501 0.0683594H89.597L75.8278 26.0928L58.5693 26.5666L72.1501 0.0683594Z" fill="#935B50"/>
<path d="M19.0535 14.9677V23.6431L51.496 13.459C51.496 13.459 54.231 6.57517 63.2847 7.51818L64.3221 9.30984C64.3221 9.30984 76.5823 9.40415 76.488 11.573L75.8279 12.4217C75.8279 12.4217 79.507 12.6103 76.4885 15.1563C76.4885 15.1563 77.5254 17.1366 74.3189 18.0795C71.1124 19.0225 65.3595 20.5313 65.3595 20.5313C65.8862 20.9419 66.5015 21.2239 67.1564 21.3549C67.8113 21.4858 68.4877 21.4621 69.1319 21.2857C70.2334 20.9136 71.3716 20.6608 72.527 20.5313C72.6694 20.7185 72.7639 20.9375 72.8024 21.1694C72.8408 21.4013 72.822 21.6392 72.7477 21.8622C72.6733 22.0852 72.5456 22.2867 72.3757 22.4492C72.2058 22.6117 71.9987 22.7302 71.7726 22.7945C69.9807 23.4545 67.7173 24.7747 66.6799 24.7747C65.6425 24.7747 55.8343 26.2835 55.8343 26.2835L16.3576 43.7955C14.6978 44.5318 12.8819 44.8474 11.0709 44.7144C9.25988 44.5814 7.50964 44.0038 5.97522 43.0328C4.4408 42.0619 3.16956 40.7275 2.27413 39.1479C1.37869 37.5684 0.886697 35.7924 0.841741 33.9773L0.380249 15.3448L19.0535 14.9677Z" fill="#F9977A"/>
<path d="M80.3547 5.302C80.6603 5.29139 80.9498 5.16256 81.1622 4.94267C81.3746 4.72278 81.4933 4.429 81.4933 4.12328C81.4933 3.81757 81.3746 3.52381 81.1622 3.30391C80.9498 3.08402 80.6603 2.95519 80.3547 2.94458C80.0491 2.95519 79.7596 3.08402 79.5472 3.30391C79.3348 3.52381 79.2161 3.81757 79.2161 4.12328C79.2161 4.429 79.3348 4.72278 79.5472 4.94267C79.7596 5.16256 80.0491 5.29139 80.3547 5.302Z" fill="#6C7FD8"/>
<path d="M87.4518 4.12354C87.4518 4.12354 89.8384 6.50336 84.4101 13.3176C84.4622 13.7709 84.4131 14.2302 84.2663 14.6623C84.1195 15.0944 83.8788 15.4886 83.5613 15.8165C83.8205 16.1458 83.9614 16.5526 83.9614 16.9716C83.9614 17.3907 83.8205 17.7975 83.5613 18.1268C83.7357 18.5643 83.7681 19.0456 83.6539 19.5025C83.5396 19.9594 83.2846 20.3688 82.9248 20.6728C82.9248 20.6728 82.7833 23.5725 80.8735 23.5725H77.1614C77.1614 23.5725 75.9863 22.6815 77.1614 22.0166C77.1614 22.0166 74.3672 21.8751 76.4887 19.8948C76.4887 19.8948 75.2149 18.4804 77.1247 17.0659C76.956 16.8634 76.8352 16.6254 76.771 16.3697C76.7069 16.114 76.7013 15.8472 76.7544 15.589C76.8076 15.3308 76.9182 15.0879 77.0781 14.8784C77.238 14.6688 77.443 14.4979 77.678 14.3784C79.3345 14.1254 80.974 13.7712 82.5872 13.3176L87.4518 4.12354Z" fill="#F9977A"/>
<path d="M13.9608 27.792C14.5017 26.8015 15.2164 25.9164 16.0709 25.1792C16.9151 24.4173 17.9429 23.8878 19.0535 23.6431C18.0668 24.1297 17.1498 24.7465 16.3269 25.4768C15.4962 26.2043 14.7062 26.9772 13.9608 27.792ZM75.8279 12.4217C74.6065 12.5565 73.3786 12.622 72.1498 12.6179C70.921 12.6227 69.693 12.5572 68.4717 12.4216C69.693 12.2862 70.9211 12.2206 72.1498 12.2252C73.3786 12.2214 74.6065 12.2871 75.8279 12.4217ZM64.3221 9.30984C63.8464 9.44339 63.3544 9.50929 62.8603 9.50599C62.3662 9.51031 61.874 9.4442 61.3985 9.30965C61.8741 9.17553 62.3662 9.10959 62.8603 9.11384C63.3543 9.11061 63.8463 9.17671 64.3221 9.30984ZM76.4885 15.1563C75.311 15.4001 74.1204 15.5754 72.9226 15.6815C71.7256 15.7967 70.5228 15.8416 69.3206 15.8162C70.498 15.5716 71.6887 15.3962 72.8866 15.2908C74.0837 15.1767 75.2863 15.1319 76.4885 15.1563ZM82.5872 13.3176C82.6767 13.1582 82.8107 13.0284 82.9729 12.944C83.135 12.8597 83.3183 12.8244 83.5002 12.8425C83.677 12.8605 83.8495 12.9084 84.0102 12.9844C84.167 13.0637 84.3038 13.1777 84.4101 13.3176C84.0512 13.3114 83.7681 13.2312 83.4791 13.2342C83.1792 13.2083 82.8771 13.2366 82.5872 13.3176ZM77.1247 17.0659C78.1666 16.7264 79.229 16.4533 80.3056 16.2485C81.3804 16.0348 82.468 15.8908 83.5613 15.8165C82.5197 16.157 81.4571 16.4297 80.3804 16.6335C79.3054 16.8464 78.218 16.9909 77.1247 17.0659ZM76.4887 19.8948C77.6404 19.4733 78.8226 19.1944 79.9989 18.8911L81.778 18.5015C82.372 18.3745 82.9724 18.2815 83.5613 18.1268C83.0167 18.4081 82.4441 18.6318 81.853 18.7944C81.2703 18.9753 80.6783 19.1177 80.0896 19.273C78.9039 19.5575 77.7011 19.7651 76.4887 19.8948ZM77.1614 22.0166C78.0976 21.6979 79.0514 21.4334 80.0181 21.2248C80.9844 21.0264 81.9429 20.8332 82.9248 20.6728C82.0257 21.0981 81.078 21.412 80.1029 21.6077C79.1353 21.8249 78.1515 21.9617 77.1614 22.0166Z" fill="#DD765E"/>
</svg>
