<svg width="38" height="70" viewBox="0 0 38 70" fill="none" xmlns="http://www.w3.org/2000/svg">
<path d="M32.5156 14.8424L31.8756 24.1037C31.6678 27.8606 31.8592 31.6289 32.4465 35.3454C33.1202 40.0296 26.9336 47.4281 24.6802 47.5201V56.8366C25.2581 63.2552 21.0294 68.457 16.5713 69.0527C11.4565 69.7362 5.16405 64.4742 5.50425 56.8366V35.047C5.50425 35.047 -2.33115 33.6039 2.2051 25.8725C4.90085 21.3596 6.49063 16.273 6.84452 11.0284L15.2984 4.63718L32.5156 14.8424Z" fill="#F9977A"/>
<path d="M23.2369 22.9735C24.3003 24.385 25.1081 25.9718 25.6238 27.662C25.9044 28.5266 26.0129 29.4378 25.9434 30.3442C25.9028 30.8227 25.7164 31.2773 25.4095 31.6467C25.2493 31.8145 25.0558 31.9468 24.8415 32.0354C24.6271 32.1239 24.3966 32.1666 24.1647 32.1607C24.5707 32.0539 24.9217 31.7983 25.148 31.4447C25.3377 31.0961 25.4311 30.7033 25.4185 30.3067C25.386 29.472 25.2375 28.6459 24.9773 27.8522C24.496 26.2181 23.8314 24.6251 23.2369 22.9735ZM24.6802 47.5201C24.6802 47.5201 18.4944 47.2043 15.5046 44.3728C15.5046 44.3728 19.3192 51.9528 24.6802 52.9836L24.6802 47.5201Z" fill="#DD765E"/>
<path d="M37.0517 12.0593C37.0517 12.0593 36.9486 7.83285 29.5257 5.97734C22.1027 4.12184 20.6593 -0.00152476 16.3808 1.1324C13.6177 1.99271 11.1875 3.68468 9.42182 5.97734C9.42182 5.97734 -4.0152 3.9218 2.49712 25.3601C2.49712 25.3601 7.3599 31.0267 7.87537 25.9756C8.39085 20.9245 9.52493 12.2654 12.3085 9.99759C15.0921 7.72975 19.4222 9.9976 21.0718 11.2346C22.7213 12.4715 33.0309 19.7905 34.0619 19.172C35.0928 18.5535 39.2168 17.3166 37.0517 12.0593Z" fill="#1E1D22"/>
<path d="M20.436 36.1018C20.436 36.1018 23.4856 38.9029 26.0377 36.9642Z" fill="#DD2F22"/>
</svg>
