<svg width="20" height="4" viewBox="0 0 20 4" fill="none" xmlns="http://www.w3.org/2000/svg">
<path d="M0.672729 2.04557C2.07837 2.33939 3.5432 2.07507 4.75743 1.30847C5.5695 0.808363 6.48729 0.50505 7.43748 0.422787C7.94005 0.383409 8.4456 0.410199 8.94119 0.502461C9.48708 0.594433 10.0133 0.778689 10.4973 1.04733L9.7416 0.837092C9.98284 0.832471 10.2241 0.830416 10.4653 0.836048L9.70915 1.04678C9.96719 0.902642 10.2383 0.783202 10.5188 0.690049C10.7622 0.607135 11.0118 0.543705 11.2653 0.500373C11.7611 0.408117 12.2668 0.380816 12.7696 0.419157C13.7203 0.501096 14.6386 0.804409 15.451 1.30482C15.9948 1.67258 16.6097 1.92212 17.2559 2.03731C18.0087 2.1765 18.7804 2.17929 19.5342 2.04554C18.9268 2.72855 18.1332 3.21946 17.2507 3.45805C16.3683 3.69664 15.4354 3.67253 14.5665 3.38869C13.9642 3.20617 13.3345 3.13083 12.7062 3.16612C12.425 3.19 12.1463 3.23798 11.8733 3.30953C11.7392 3.34397 11.6122 3.39383 11.4873 3.43547C11.3968 3.46999 11.3082 3.50945 11.2219 3.55369L10.4654 3.76444C10.2241 3.7701 9.9829 3.76857 9.74166 3.7634L8.98556 3.55315C8.89937 3.50871 8.81071 3.46925 8.72001 3.43494C8.59502 3.39329 8.46878 3.34034 8.33418 3.30693C8.0609 3.23569 7.78212 3.18755 7.50078 3.163C6.87196 3.12698 6.24172 3.20215 5.63903 3.38506C4.77055 3.66809 3.83843 3.69214 2.95651 3.45428C2.07459 3.21641 1.28104 2.72691 0.672729 2.04557V2.04557Z" fill="#1E1D22"/>
</svg>
