<svg width="85" height="106" viewBox="0 0 85 106" fill="none" xmlns="http://www.w3.org/2000/svg">
<path d="M57.1711 36.471C57.5254 33.799 57.6152 31.0985 57.4391 28.4089C57.2905 25.7881 56.9996 23.1774 56.5677 20.5882C56.1504 18.0091 55.5824 15.4558 54.9144 12.9236C54.2473 10.3747 53.4047 7.92244 52.5045 5.31035C52.2502 5.95903 52.0571 6.63008 51.9278 7.31473C51.7836 7.98702 51.6784 8.66708 51.6126 9.3515C51.473 10.6945 51.4124 12.0446 51.431 13.3947C51.4704 16.0507 51.7137 18.6999 52.1587 21.3187C52.5919 23.9296 53.2046 26.5075 53.9924 29.0341C54.7714 31.6238 55.8376 34.1183 57.1711 36.471ZM71.3341 0C69.3536 1.90949 67.6553 4.09131 66.2903 6.47973C64.9607 8.7452 63.8297 11.1215 62.9099 13.5819C61.9817 16.0392 61.2717 18.5734 60.7881 21.1552C60.2474 23.8537 60.0983 26.6159 60.3454 29.3569C62.3316 27.4517 64.033 25.2703 65.397 22.88C66.7278 20.6153 67.8563 18.2377 68.7696 15.7749C69.6914 13.3152 70.3987 10.7803 70.8835 8.19863C71.4225 5.50103 71.5742 2.7404 71.3341 0ZM80.8296 14.6784C78.4799 16.5659 76.2608 18.6104 74.1875 20.7978C72.1347 22.9255 70.1758 25.1009 68.2592 27.2879L62.565 33.8219C61.6098 34.8919 60.6445 35.9462 59.6246 36.9449C58.6169 38.0029 57.4433 38.8894 56.1499 39.5694C56.9387 39.7073 57.7472 39.6869 58.528 39.5091C59.3154 39.3522 60.0836 39.1107 60.8191 38.7886C62.2586 38.1559 63.6266 37.3717 64.8998 36.4491C67.3708 34.6402 69.6262 32.554 71.6217 30.2312C73.6067 27.9555 75.3936 25.5146 76.9633 22.935C78.579 20.348 79.8771 17.5759 80.8296 14.6784ZM80.8296 29.3568C77.9331 30.8029 75.17 32.5021 72.5726 34.4345C70.0023 36.3139 67.5297 38.3233 65.1643 40.4548C62.7939 42.5807 60.5355 44.8283 58.3983 47.1884C56.2036 49.569 54.226 52.141 52.4892 54.8736C55.3887 53.4321 58.1535 51.7342 60.7506 49.8003C63.3214 47.9217 65.7929 45.9107 68.1549 43.7756C70.522 41.6461 72.7789 39.3971 74.9166 37.0375C77.11 34.6564 79.0887 32.0861 80.8296 29.3568ZM79.8639 40.8736C76.9458 42.2313 74.1542 43.8456 71.5218 45.6973C68.9181 47.4966 66.4086 49.4285 64.0031 51.4853C61.5928 53.5363 59.2914 55.7118 57.1082 58.003C54.867 60.3135 52.8379 62.8207 51.0455 65.4942C53.9664 64.1412 56.7598 62.5284 59.3919 60.6752C61.996 58.8766 64.5042 56.9431 66.9063 54.8826C69.3134 52.8279 71.6134 50.6509 73.7972 48.3602C76.0372 46.0493 78.0674 43.5439 79.8639 40.8736ZM79.2204 53.1839C76.3165 54.2757 73.5193 55.6325 70.8643 57.2371C68.2434 58.7905 65.7074 60.4827 63.267 62.3065C60.8221 64.1242 58.4777 66.0732 56.2442 68.1451C53.9499 70.234 51.8553 72.5321 49.9877 75.0097C52.8938 73.9226 55.6924 72.5673 58.3472 70.9614C60.9685 69.4086 63.5035 67.7147 65.941 65.887C68.3829 64.0655 70.7259 62.1149 72.9599 60.0436C75.2529 57.9541 77.3485 55.6578 79.2204 53.1839ZM79.8639 62.115C76.8259 63.3371 73.9004 64.8222 71.1209 66.5535C68.3724 68.2345 65.7104 70.053 63.1451 72.0023C60.5752 73.9454 58.1067 76.0192 55.7495 78.2156C53.3338 80.4268 51.1182 82.8472 49.1288 85.4486C52.1693 84.2313 55.0961 82.7476 57.8752 81.0149C60.6243 79.3347 63.2852 77.5144 65.8475 75.5613C68.4145 73.6143 70.8815 71.5389 73.2392 69.3432C75.6538 67.1313 77.8704 64.7127 79.8639 62.115ZM82.1171 70.4828C78.954 71.9536 75.8999 73.6484 72.9782 75.5542C70.0768 77.4114 67.2696 79.3747 64.5327 81.4238C61.7879 83.461 59.1191 85.5849 56.4975 87.7795C53.8488 89.9553 51.3468 92.2215 48.6064 94.4658C50.3661 94.1763 52.0843 93.675 53.7235 92.9726C55.3465 92.2942 56.9326 91.5307 58.4752 90.6853C61.5094 88.9881 64.4267 87.0899 67.2076 85.0035C69.9785 82.9267 72.6272 80.6918 75.1406 78.3099C77.7015 75.9206 80.0369 73.3005 82.1171 70.4828ZM84.8531 79.1725C81.4348 80.5008 78.1181 82.0767 74.9292 83.8878C71.7601 85.6531 68.6845 87.5485 65.6795 89.5436C62.6741 91.5381 59.7412 93.6354 56.8808 95.8354C55.451 96.9384 54.0349 98.0613 52.6325 99.2041C51.2759 100.406 49.8347 101.51 48.32 102.506C49.2698 102.506 50.2127 102.344 51.108 102.027C52.0064 101.761 52.8787 101.437 53.7414 101.101C55.4619 100.418 57.1244 99.6366 58.755 98.8088C61.9919 97.142 65.1303 95.2907 68.155 93.2642C71.1791 91.2523 74.0994 89.0884 76.9044 86.7808C79.7596 84.4686 82.4183 81.9238 84.8531 79.1725ZM54.3971 46.6943C54.2518 43.7908 53.8222 40.9084 53.1144 38.0888C52.4462 35.3206 51.6203 32.5928 50.6408 29.9189C49.6683 27.2424 48.5412 24.6246 47.2652 22.0788C45.9875 19.4668 44.454 16.9879 42.6872 14.6784C42.8273 17.5827 43.2549 20.466 43.9638 23.286C44.6315 26.0543 45.4595 28.7814 46.4435 31.4537C47.4206 34.1286 48.5495 36.7456 49.8248 39.2918C51.1033 41.9028 52.6347 44.3821 54.3971 46.6943ZM52.4892 56.7426C51.9409 53.8545 51.1137 51.0264 50.0191 48.298C48.9705 45.6147 47.7712 42.9928 46.4269 40.4447C45.0893 37.8931 43.6063 35.4204 41.9852 33.0388C40.3541 30.5923 38.487 28.3117 36.4106 26.2298C36.9539 29.1194 37.7793 31.9487 38.875 34.6772C39.9232 37.3606 41.1245 39.9818 42.4729 42.5277C43.8148 45.077 45.2995 47.5486 46.9198 49.9307C48.5519 52.3759 50.4171 54.6572 52.4892 56.7426ZM51.0455 66.4598C50.105 63.5281 48.8946 60.6901 47.4297 57.982C46.0145 55.3111 44.4568 52.7181 42.7632 50.2144C41.0756 47.7066 39.252 45.2929 37.3007 42.9843C35.3348 40.6139 33.1508 38.4333 30.7774 36.471C31.7131 39.4048 32.922 42.2443 34.3884 44.9522C35.8027 47.6237 37.3623 50.2156 39.0601 52.7164C40.7516 55.2216 42.5767 57.6341 44.5274 59.9432C46.4939 62.3123 48.6759 64.4938 51.0455 66.4598ZM49.9876 77.1804C48.5128 74.0115 46.7815 70.9685 44.8111 68.0815C42.8872 65.2105 40.8342 62.4451 38.6524 59.7853C36.4778 57.1195 34.1772 54.5566 31.7505 52.0967C29.3142 49.5896 26.6741 47.2889 23.8573 45.2184C25.3264 48.3904 27.0562 51.4351 29.0289 54.3211C30.9529 57.1919 33.0073 59.956 35.192 62.6135C37.3719 65.2754 39.6741 67.837 42.0987 70.2983C44.5363 72.8035 47.1748 75.1052 49.9876 77.1804ZM49.1289 88.2972C47.3207 85.2849 45.2707 82.4245 42.9989 79.7444C40.775 77.0751 38.4337 74.5242 35.9749 72.0917C33.523 69.6525 30.9564 67.3287 28.275 65.1202C25.5793 62.8661 22.7021 60.8383 19.6727 59.0575C21.4756 62.0735 23.5244 64.9356 25.7983 67.6145C28.0222 70.2836 30.3648 72.8331 32.8263 75.263C35.2829 77.6978 37.851 80.0202 40.5305 82.2301C43.2274 84.4822 46.103 86.5112 49.1289 88.2972ZM48.6063 95.4253C46.6006 92.8263 44.3722 90.407 41.9463 88.195C39.5773 85.9989 37.0992 83.9234 34.5215 81.9764C31.9485 80.0233 29.277 78.2032 26.5177 76.5235C23.7282 74.7912 20.7913 73.3083 17.7412 72.092C19.7431 74.6946 21.9705 77.1157 24.3977 79.3271C26.7661 81.5238 29.2455 83.5978 31.826 85.5409C34.4022 87.49 37.0748 89.3084 39.8337 90.989C42.6235 92.7197 45.5588 94.2041 48.6063 95.4253ZM48.3199 101.379C45.9137 99.0073 43.3109 96.8435 40.5392 94.9109C37.8185 92.977 35.015 91.1878 32.1286 89.5434C29.2468 87.8909 26.2843 86.3795 23.2412 85.0091C20.1704 83.598 16.9843 82.4529 13.7177 81.5862C16.1206 83.9624 18.7228 86.1282 21.4958 88.0599C24.2165 89.9936 27.021 91.781 29.9091 93.4221C32.794 95.0693 35.7574 96.5791 38.7995 97.9513C41.8705 99.3608 45.0553 100.508 48.3199 101.379ZM48.5421 105.241C45.6552 103.25 42.6107 101.496 39.4391 99.9988C36.3158 98.4912 33.1314 97.1479 29.8951 95.9454C26.6592 94.7418 23.3667 93.6906 20.0175 92.7919C16.6361 91.8577 13.1833 91.2045 9.69427 90.8391C12.5781 92.8363 15.6221 94.5917 18.7952 96.0874C21.9189 97.5948 25.1009 98.944 28.3413 100.135C31.5794 101.333 34.8699 102.39 38.2211 103.283C41.6026 104.215 45.0543 104.87 48.5421 105.241Z" fill="#50661A"/>
<path d="M29.6125 41.1093C28.7081 43.3466 28.0165 45.6642 27.5471 48.0312C27.0671 50.3495 26.7147 52.6924 26.4914 55.0493C26.2622 57.4056 26.1652 59.7729 26.2007 62.1401C26.2142 64.5538 26.4583 66.9606 26.9298 69.3278C27.8386 67.0917 28.5318 64.774 29 62.4062C29.4808 60.0881 29.8316 57.7449 30.0509 55.3877C30.2758 53.031 30.3713 50.6637 30.3368 48.2965C30.3219 45.8833 30.0794 43.4769 29.6125 41.1093ZM37.4988 51.8909C36.3975 53.9751 35.5 56.1607 34.8187 58.4173C34.1317 60.6232 33.5695 62.866 33.1348 65.1351C32.6944 67.403 32.3841 69.6943 32.2054 71.9977C32.0013 74.3465 32.0271 76.7097 32.2822 79.0535C33.3876 76.9709 34.2868 74.7853 34.9672 72.5279C35.6545 70.3222 36.2151 68.079 36.6462 65.8092C37.0829 63.5405 37.3916 61.2491 37.5709 58.9457C37.7737 56.5972 37.7496 54.2347 37.4988 51.8909ZM41.8441 64.4426C40.8742 66.3797 40.1096 68.4128 39.5625 70.5089C39.0102 72.5507 38.5839 74.6245 38.286 76.7186C37.9824 78.8118 37.8099 80.922 37.7695 83.0367C37.7068 85.2026 37.8736 87.369 38.2672 89.4997C39.2413 87.5641 40.0077 85.5309 40.5536 83.434C41.1067 81.3925 41.5314 79.3183 41.8253 77.2237C42.1252 75.1298 42.296 73.0196 42.337 70.9048C42.3986 68.7394 42.2334 66.5736 41.8441 64.4426ZM47.3161 76.9711C46.3424 78.5938 45.5658 80.3269 45.0027 82.1336C44.4394 83.8787 44.0005 85.6615 43.6895 87.4687C43.3725 89.2748 43.1865 91.1015 43.1328 92.9345C43.0562 94.8258 43.2082 96.7195 43.5856 98.5745C44.5634 96.9536 45.3418 95.2205 45.9038 93.4128C46.4679 91.668 46.9053 89.8847 47.2127 88.0769C47.5254 86.27 47.7098 84.4432 47.7645 82.6103C47.8398 80.7194 47.6893 78.8263 47.3161 76.9711ZM52.1442 84.8019C51.1509 86.2092 50.3309 87.7311 49.702 89.3347C49.0857 90.8661 48.5727 92.437 48.1666 94.0369C47.7642 95.625 47.4545 97.2351 47.2393 98.8591C47.1389 99.6776 47.0468 100.491 46.9856 101.321C46.954 102.167 46.8639 103.009 46.7158 103.842C46.9224 103.731 47.1208 103.606 47.3096 103.467L47.7916 102.984C48.0988 102.655 48.3806 102.302 48.6346 101.93C49.124 101.213 49.5574 100.459 49.9308 99.6745C50.6561 98.1502 51.226 96.5568 51.6317 94.9182C52.0454 93.2946 52.3134 91.6372 52.4324 89.9659C52.5767 88.2395 52.4797 86.5015 52.1442 84.8019ZM24.9233 65.4722C23.3007 63.6928 21.4749 62.1098 19.4835 60.7557C17.5648 59.4229 15.5558 58.225 13.471 57.1708C11.3892 56.1105 9.23501 55.1987 7.02451 54.4424C4.754 53.6377 2.39601 53.1053 0 52.8563C1.61899 54.6398 3.44398 56.2249 5.43667 57.5782C7.35492 58.9117 9.36514 60.1079 11.4523 61.1577C13.5362 62.2138 15.6911 63.1236 17.9014 63.8807C20.1717 64.6839 22.5284 65.218 24.9233 65.4722ZM30.2666 75.4512C28.1916 73.7545 25.9426 72.2824 23.5573 71.0596C21.2408 69.8444 18.851 68.7743 16.4018 67.8554C13.9552 66.9296 11.4526 66.1595 8.90882 65.5497C6.3083 64.8979 3.6454 64.5267 0.965751 64.4426C3.03776 66.1437 5.28618 67.6179 7.67245 68.8398C9.98853 70.0558 12.3792 71.1241 14.8301 72.0384C17.2784 72.9595 19.7817 73.7277 22.3253 74.3384C24.9256 74.9888 27.5876 75.3618 30.2666 75.4512ZM36.5563 86.5432C34.7088 84.9037 32.6796 83.4811 30.5084 82.3033C28.4101 81.1381 26.2354 80.1163 23.999 79.2449C21.7654 78.3668 19.4739 77.6437 17.1409 77.0807C14.7454 76.4752 12.2878 76.1493 9.81729 76.1094C11.6618 77.7533 13.6906 79.1779 15.863 80.355C17.9608 81.5209 20.1364 82.5409 22.3745 83.4077C24.61 84.2812 26.902 85.0024 29.2349 85.5663C31.6301 86.1703 34.0865 86.4981 36.5563 86.5432ZM41.5271 95.0808C39.9178 93.6866 38.1318 92.5104 36.2153 91.5824C34.3818 90.6706 32.4789 89.9056 30.5245 89.2946C28.572 88.6772 26.5728 88.2184 24.5465 87.9227C22.4424 87.5907 20.3034 87.5403 18.186 87.7728C19.7926 89.1713 21.5784 90.3497 23.4961 91.2769C25.3292 92.1896 27.233 92.9528 29.189 93.559C31.1429 94.1717 33.1423 94.6285 35.1684 94.9251C37.2719 95.2557 39.4099 95.308 41.5271 95.0808Z" fill="#5E7C24"/>
</svg>
