<svg width="54" height="63" viewBox="0 0 54 63" fill="none" xmlns="http://www.w3.org/2000/svg">
<path d="M23.391 0.0883789C24.2954 2.32571 24.987 4.6433 25.4564 7.01039C25.9364 9.32868 26.2889 11.6716 26.5121 14.0285C26.7413 16.3848 26.8384 18.752 26.8028 21.1192C26.7894 23.5329 26.5452 25.9397 26.0738 28.3069C25.165 26.0709 24.4717 23.7532 24.0035 21.3853C23.5227 19.0672 23.1719 16.7241 22.9527 14.3668C22.7277 12.0101 22.6322 9.6428 22.6667 7.27563C22.6816 4.86244 22.9241 2.45603 23.391 0.0883789V0.0883789ZM15.5047 10.87C16.606 12.9542 17.5035 15.1398 18.1848 17.3965C18.8718 19.6023 19.434 21.8451 19.8687 24.1142C20.3091 26.3821 20.6195 28.6734 20.7982 30.9768C21.0022 33.3257 20.9765 35.6888 20.7213 38.0326C19.6159 35.9501 18.7167 33.7645 18.0364 31.5071C17.349 29.3013 16.7884 27.0581 16.3573 24.7884C15.9207 22.5197 15.6119 20.2282 15.4326 17.9249C15.2298 15.5764 15.2539 13.2138 15.5047 10.87ZM11.1594 23.4217C12.1293 25.3588 12.894 27.3919 13.441 29.488C13.9933 31.5298 14.4196 33.6036 14.7175 35.6977C15.0211 37.791 15.1936 39.9011 15.234 42.0159C15.2967 44.1817 15.1299 46.3481 14.7363 48.4788C13.7622 46.5433 12.9958 44.5101 12.45 42.4132C11.8969 40.3716 11.4721 38.2974 11.1782 36.2028C10.8784 34.109 10.7075 31.9987 10.6665 29.8839C10.6049 27.7186 10.7701 25.5527 11.1594 23.4217V23.4217ZM5.6874 35.9502C6.66109 37.573 7.43771 39.306 8.00081 41.1127C8.56416 42.8578 9.00301 44.6407 9.31404 46.4478C9.63103 48.254 9.81706 50.0806 9.87067 51.9136C9.9473 53.805 9.79528 55.6987 9.41793 57.5536C8.44012 55.9327 7.66175 54.1996 7.09972 52.392C6.53565 50.6471 6.09823 48.8638 5.79086 47.056C5.47809 45.2492 5.29369 43.4224 5.23903 41.5895C5.1637 39.6986 5.31421 37.8055 5.6874 35.9502V35.9502ZM0.859339 43.781C1.85269 45.1883 2.67267 46.7102 3.30154 48.3139C3.91785 49.8452 4.4308 51.4161 4.83697 53.0161C5.23939 54.6041 5.54902 56.2142 5.76427 57.8382C5.86469 58.6567 5.9568 59.4706 6.01791 60.3002C6.04953 61.1457 6.13968 61.988 6.28771 62.8211C6.08118 62.7104 5.88276 62.5852 5.69397 62.4464L5.212 61.9635C4.90474 61.6338 4.62291 61.2814 4.36897 60.9092C3.87954 60.1917 3.44619 59.4376 3.07277 58.6535C2.34741 57.1293 1.77757 55.5358 1.37187 53.8973C0.958126 52.2736 0.690167 50.6163 0.571191 48.945C0.426821 47.2186 0.523804 45.4806 0.859339 43.781V43.781ZM28.0803 24.4513C29.7029 22.6719 31.5286 21.089 33.52 19.7348C35.4387 18.402 37.4477 17.2042 39.5325 16.1499C41.6143 15.0896 43.7685 14.1778 45.979 13.4215C48.2495 12.6169 50.6075 12.0845 53.0035 11.8355C51.3846 13.619 49.5596 15.204 47.5669 16.5573C45.6486 17.8909 43.6384 19.087 41.5513 20.1368C39.4673 21.1929 37.3124 22.1028 35.1022 22.8599C32.8318 23.663 30.4751 24.1971 28.0803 24.4513V24.4513ZM22.737 34.4303C24.812 32.7336 27.061 31.2615 29.4463 30.0387C31.7628 28.8235 34.1526 27.7534 36.6018 26.8345C39.0483 25.9088 41.551 25.1386 44.0948 24.5288C46.6953 23.877 49.3582 23.5059 52.0378 23.4217C49.9658 25.1229 47.7174 26.597 45.3311 27.819C43.0151 29.0349 40.6244 30.1033 38.1734 31.0175C35.7251 31.9387 33.2219 32.7068 30.6783 33.3175C28.078 33.9679 25.416 34.3409 22.737 34.4303V34.4303ZM16.4472 45.5223C18.2947 43.8828 20.3239 42.4602 22.4952 41.2824C24.5934 40.1172 26.7682 39.0954 29.0045 38.224C31.2381 37.3459 33.5296 36.6228 35.8627 36.0598C38.2581 35.4543 40.7157 35.1283 43.1862 35.0885C41.3417 36.7324 39.313 38.1571 37.1405 39.3341C35.0427 40.5 32.8671 41.5201 30.629 42.3869C28.3935 43.2604 26.1015 43.9815 23.7686 44.5454C21.3735 45.1494 18.917 45.4772 16.4472 45.5223V45.5223ZM11.4764 54.0599C13.0858 52.6657 14.8717 51.4895 16.7882 50.5616C18.6217 49.6498 20.5246 48.8847 22.479 48.2737C24.4315 47.6563 26.4307 47.1975 28.457 46.9018C30.5611 46.5698 32.7001 46.5194 34.8175 46.7519C33.2109 48.1504 31.4252 49.3288 29.5074 50.256C27.6743 51.1687 25.7705 51.9319 23.8145 52.5381C21.8606 53.1508 19.8612 53.6076 17.8351 53.9042C15.7316 54.2348 13.5936 54.2871 11.4764 54.0599V54.0599Z" fill="#8B9D36"/>
</svg>
