<svg width="134" height="433" viewBox="0 0 134 433" fill="none" xmlns="http://www.w3.org/2000/svg">
<path d="M130.905 76.9291C129.835 75.9072 128.489 75.2214 127.033 74.9567C125.578 74.692 124.076 74.8601 122.715 75.4401C121.97 75.8 121.307 76.3086 120.767 76.9346C120.226 77.5606 119.819 78.2907 119.572 79.0798C119.51 79.2997 118.791 82.0352 120.482 83.7946C121.277 84.6228 122.765 85.3994 123.791 84.8699C124.043 84.7452 124.259 84.5582 124.418 84.3265C124.577 84.0949 124.674 83.8263 124.701 83.5464C124.696 83.0822 124.366 82.9866 124.204 82.3884C124.023 81.7137 124.158 80.7755 124.618 80.5686C125.108 80.3485 125.964 80.9566 126.355 81.6439C127.084 82.9247 126.44 84.9071 125.335 86.0279C123.545 87.8438 120.602 87.3403 119.379 87.131C116.679 86.5766 114.259 85.0937 112.54 82.9399C111.253 81.5778 110.341 79.9061 109.893 78.0872C109.583 76.3273 109.658 74.5212 110.113 72.7933C110.812 69.4419 111.679 68.9453 113.202 64.6318C114.356 61.3618 114.929 59.6794 114.746 57.3528C114.692 55.3493 113.996 53.4162 112.76 51.8383C111.246 50.0818 109.113 48.9759 106.804 48.7503C105.369 48.6628 103.932 48.8943 102.597 49.4282C101.262 49.9621 100.062 50.7852 99.0829 51.8383L96.3253 48.7124C96.3253 48.7124 99.6343 47.4819 94.8363 39.2102L95.7461 38.507C95.7461 28.4119 91.7354 18.7302 84.5962 11.5919C77.457 4.45362 67.7741 0.443359 57.6778 0.443359C47.5815 0.443359 37.8986 4.45362 30.7595 11.5919C23.6203 18.7302 19.6095 28.4119 19.6095 38.507L15.753 141.834H14.4256C14.034 141.834 13.6462 141.91 13.2842 142.059C12.9222 142.209 12.5932 142.428 12.3161 142.705C12.039 142.981 11.8191 143.31 11.6691 143.671C11.5191 144.033 11.4418 144.421 11.4418 144.812C11.4418 145.204 11.5191 145.591 11.6691 145.953C11.8191 146.315 12.039 146.643 12.3161 146.92C12.5932 147.196 12.9222 147.416 13.2842 147.565C13.6462 147.714 14.034 147.791 14.4256 147.79H15.5306L15.067 160.216H14.4256C14.034 160.215 13.6462 160.292 13.2842 160.441C12.9222 160.59 12.5932 160.81 12.3161 161.086C12.039 161.363 11.8191 161.691 11.6691 162.053C11.5191 162.415 11.4418 162.802 11.4418 163.194C11.4418 163.585 11.5191 163.973 11.6691 164.335C11.8191 164.696 12.039 165.025 12.3161 165.301C12.5932 165.578 12.9222 165.797 13.2842 165.947C13.6462 166.096 14.034 166.172 14.4256 166.172H14.8448L5.18254 425.057H4.60849C3.61385 425.057 2.65996 425.452 1.95665 426.155C1.25334 426.859 0.858215 427.812 0.858215 428.807C0.858215 429.801 1.25334 430.755 1.95665 431.458C2.65996 432.162 3.61385 432.557 4.60849 432.557H45.972C46.9667 432.557 47.9206 432.162 48.6239 431.458C49.3272 430.755 49.7223 429.801 49.7223 428.807C49.7223 427.812 49.3272 426.859 48.6239 426.155C47.9206 425.452 46.9667 425.057 45.972 425.057H45.0668L35.4045 166.172H35.8241C36.2157 166.172 36.6036 166.096 36.9656 165.947C37.3275 165.797 37.6565 165.578 37.9337 165.301C38.2108 165.025 38.4307 164.696 38.5807 164.335C38.7307 163.973 38.8079 163.585 38.8079 163.194C38.8079 162.802 38.7307 162.415 38.5807 162.053C38.4307 161.691 38.2108 161.363 37.9337 161.086C37.6565 160.81 37.3275 160.59 36.9656 160.441C36.6036 160.292 36.2157 160.215 35.8241 160.216H35.1823L34.7187 147.79H35.8241C36.2157 147.791 36.6036 147.714 36.9656 147.565C37.3275 147.416 37.6565 147.196 37.9337 146.92C38.2108 146.643 38.4307 146.315 38.5807 145.953C38.7307 145.591 38.8079 145.204 38.8079 144.812C38.8079 144.421 38.7307 144.033 38.5807 143.671C38.4307 143.31 38.2108 142.981 37.9337 142.705C37.6565 142.428 37.3275 142.209 36.9656 142.059C36.6036 141.91 36.2157 141.834 35.8241 141.834H34.4963L30.6398 38.507C30.6398 31.3369 33.4884 24.4605 38.559 19.3906C43.6296 14.3206 50.5069 11.4723 57.6778 11.4723C64.8487 11.4723 71.7259 14.3206 76.7965 19.3906C81.8672 24.4605 84.7158 31.3369 84.7158 38.507L85.626 39.2102C80.8276 47.4819 84.1368 48.7124 84.1368 48.7124L81.3792 51.8383C80.4003 50.7852 79.2002 49.9621 77.8652 49.4282C76.5301 48.8943 75.0933 48.6628 73.6581 48.7503C71.3495 48.9759 69.2165 50.0818 67.7018 51.8383C66.466 53.4162 65.77 55.3493 65.7162 57.3528C65.5333 59.6794 66.1065 61.3618 67.2606 64.6318C68.783 68.9453 69.6504 69.4419 70.349 72.7933C70.8044 74.5212 70.8796 76.3273 70.5696 78.0872C70.1208 79.9061 69.2088 81.5778 67.9224 82.9399C66.2031 85.0937 63.7832 86.5766 61.0835 87.131C59.86 87.3403 56.9173 87.8438 55.1271 86.0279C54.0223 84.9071 53.3781 82.9247 54.1069 81.6439C54.4981 80.9566 55.3544 80.3485 55.8441 80.5686C56.3044 80.7755 56.4395 81.7137 56.2577 82.3884C56.0966 82.9866 55.766 83.0822 55.7615 83.5464C55.7877 83.8263 55.885 84.0949 56.0443 84.3265C56.2036 84.5582 56.4195 84.7452 56.6715 84.8699C57.6969 85.3994 59.1847 84.6228 59.9805 83.7946C61.671 82.0352 60.9519 79.2997 60.8905 79.0798C60.6428 78.2907 60.2362 77.5606 59.6955 76.9346C59.1549 76.3086 58.4917 75.8 57.7469 75.4401C56.3858 74.8601 54.8844 74.692 53.4286 74.9567C51.9729 75.2214 50.6268 75.9072 49.557 76.9291C48.08 78.3435 47.1932 80.2644 47.075 82.3058C46.9094 86.9643 51.3283 90.1272 52.5351 90.991C56.7887 94.0357 61.4874 94.1659 64.9442 94.217C74.1976 94.3539 82.4095 94.4077 90.2309 94.3871C98.0526 94.4077 106.264 94.3539 115.518 94.217C118.975 94.1659 123.673 94.0357 127.927 90.991C129.134 90.1272 133.553 86.9643 133.387 82.3058C133.269 80.2644 132.382 78.3435 130.905 76.9291Z" fill="#616161"/>
</svg>
